<svg xmlns="http://www.w3.org/2000/svg" viewBox="0 0 71.59 23.3"><path d="M29.83,25c-.26,0-.57,0-.93,0a6.37,6.37,0,0,1-.9-.12V22.75l.71.12a7.18,7.18,0,0,0,1,.06A2.3,2.3,0,0,0,31.81,22a4.29,4.29,0,0,0,.61-2.41V5h2.36V19.84a5.56,5.56,0,0,1-1.2,3.77A4.7,4.7,0,0,1,29.83,25Z" transform="translate(0 -3.35)" style="fill:#fff"/><path d="M37.69,9.93h1.9l3.58,9.91h.13l3.45-9.91h2L44.32,21.72H42.1Z" transform="translate(0 -3.35)" style="fill:#fff;stroke:#fff;stroke-miterlimit:10;stroke-width:0.30000000000000004px"/><path d="M54.19,9.72a8.24,8.24,0,0,1,2.3.27,3.77,3.77,0,0,1,1.44.75,2.6,2.6,0,0,1,.74,1.16,4.91,4.91,0,0,1,.21,1.46v8.36h-1.6L57,19.93a3.15,3.15,0,0,1-.7.85,4.18,4.18,0,0,1-1,.63,4.76,4.76,0,0,1-1.21.39,6.47,6.47,0,0,1-1.31.13A4.41,4.41,0,0,1,49.7,21a3.39,3.39,0,0,1-1-2.6,4.08,4.08,0,0,1,.34-1.77,2.82,2.82,0,0,1,1-1.15,4.09,4.09,0,0,1,1.47-.63,8.06,8.06,0,0,1,1.91-.2H57v-1a3.68,3.68,0,0,0-.12-1,1.69,1.69,0,0,0-.44-.77,2.11,2.11,0,0,0-.88-.49,5.36,5.36,0,0,0-1.46-.17c-.39,0-.82,0-1.28.06a13.05,13.05,0,0,0-1.32.2V9.89c.44-.06.89-.1,1.35-.13S53.76,9.72,54.19,9.72ZM53,20.36a5,5,0,0,0,2.53-.6A3.52,3.52,0,0,0,57,18.12V16.17H53.53a8,8,0,0,0-1.27.09,2,2,0,0,0-.89.34,1.51,1.51,0,0,0-.52.69,2.93,2.93,0,0,0-.18,1.11,1.93,1.93,0,0,0,.53,1.47A2.5,2.5,0,0,0,53,20.36Z" transform="translate(0 -3.35)" style="fill:#fff;stroke:#fff;stroke-miterlimit:10;stroke-width:0.30000000000000004px"/><path d="M60.33,9.93h1.9l3.58,9.91h.13l3.44-9.91h2L67,21.72H64.74Z" transform="translate(0 -3.35)" style="fill:#fff;stroke:#fff;stroke-miterlimit:10;stroke-width:0.30000000000000004px"/><g style="opacity:0.96"><path d="M15,19.85s1.15.67-.82.89A17.09,17.09,0,0,1,8,20.48a11.34,11.34,0,0,1-1.65.81c5.87,2.51,13.29-.15,8.68-1.44" transform="translate(0 -3.35)" style="fill:#fff"/><path d="M15.72,16.57s1.28.95-.68,1.15a24.52,24.52,0,0,1-8-.38,3.65,3.65,0,0,1-1.23.75c7.1,2.08,15,.16,9.93-1.52" transform="translate(0 -3.35)" style="fill:#fff"/><path d="M1.9,22.28s-.85.7.93,1.24c3.39,1,14.11,1.34,17.09,0,1.07-.46-.94-1.11-1.57-1.25a4,4,0,0,0-1-.11c1.19-.84,7.69,1.64,3.3,2.36-12,1.94-21.83-.88-18.72-2.28" transform="translate(0 -3.35)" style="fill:#fff"/><path d="M14.45,13.16s5.45,1.3,1.93,1.77a41,41,0,0,1-7.21-.08c-2.26-.19-4.52-.59-4.52-.59A10,10,0,0,1,6,15c5.53,1.46,16.23.78,13.15-.71a10.32,10.32,0,0,0-4.72-1.12" transform="translate(0 -3.35)" style="fill:#fff"/><path d="M4.67,18.63c-5.63-2.92-3-5.73-1.21-5.36a4.79,4.79,0,0,1,.64.18,1,1,0,0,0-.48-.37C0,11.81-2.74,16.8,4.78,18.78a.43.43,0,0,1-.11-.15" transform="translate(0 -3.35)" style="fill:#fff"/><path d="M13.9,26.56C8.49,26.9.2,26.36,0,23.81c0,0,.38,1,4.46,1.74a44.91,44.91,0,0,0,13.68.21s-.69.57-4.24.8" transform="translate(0 -3.35)" style="fill:#fff"/></g><path d="M14.21,13.93a.2.2,0,0,0-.17-.12.49.49,0,0,1-.24-.16,1.48,1.48,0,0,1-.24-1.06.22.22,0,0,1,.12-.16,1.53,1.53,0,0,0,.57-.47c.11-.17.2-.35.3-.53a3.62,3.62,0,0,0,.51-1.66,4.69,4.69,0,0,0-.18-1.19,2.75,2.75,0,0,0-.21-.69c-.09-.19-.21-.38-.3-.57a.71.71,0,0,1-.12-.43,2.86,2.86,0,0,0,0-.51c0-.16-.12-.25-.19-.37s-.09-.32-.18-.46a3.78,3.78,0,0,1-.61-.87.18.18,0,0,0-.09-.08A.5.5,0,0,1,13,4.48c-.14-.11-.19-.27-.3-.39A2.2,2.2,0,0,0,12,3.56a2.61,2.61,0,0,0-.77-.18,3.06,3.06,0,0,0-1.2.08,2.84,2.84,0,0,0-1,.45c-.22.15-.43.31-.64.47s-.29.37-.46.54a4.47,4.47,0,0,0-.32.41.54.54,0,0,0-.1.16c-.1.33-.19.65-.26,1a3.5,3.5,0,0,0,0,1.21,1,1,0,0,1,0,.5.22.22,0,0,0,0,.14.84.84,0,0,1,0,.39,1.34,1.34,0,0,0-.13.45.89.89,0,0,0,.28.68,2.68,2.68,0,0,1,.39.56.63.63,0,0,0,.42.33l.34.07a.62.62,0,0,0,.38,0c.11,0,.17,0,.23.08s.22.41.34.6a1.53,1.53,0,0,1,.22,1,1.87,1.87,0,0,1-.19.65,1.06,1.06,0,0,1-.64.52.14.14,0,0,0-.1.08c.29,0,.59.07.89.09A39.3,39.3,0,0,0,14.21,13.93Z" transform="translate(0 -3.35)" style="fill:#fff;opacity:0.96"/></svg>